HIERARCHY
ROOT Hips
{
	OFFSET 0.000000 0.000000 0.000000
	CHANNELS 6 Xposition Yposition Zposition Xrotation Yrotation Zrotation
	JOINT LeftUpLeg_virtual
	{
		OFFSET 0.000000 0.000000 0.000000
		CHANNELS 3 Xrotation Yrotation Zrotation
		JOINT LeftUpLeg
		{
			OFFSET 11.394100 -6.187798 -0.413800
			CHANNELS 3 Xrotation Yrotation Zrotation
			JOINT LeftLeg
			{
				OFFSET 0.430247 -32.302673 3.732800
				CHANNELS 3 Xrotation Yrotation Zrotation
				JOINT LeftFoot
				{
					OFFSET -0.430247 -48.264931 -6.423300
					CHANNELS 3 Xrotation Yrotation Zrotation
					JOINT LeftToeBase
					{
						OFFSET 4.230900 -16.068199 23.438400
						CHANNELS 3 Xrotation Yrotation Zrotation
						JOINT LeftToe_End
						{
							OFFSET 4.510700 0.695400 19.974600
							CHANNELS 3 Xrotation Yrotation Zrotation
							End Site
							{
								OFFSET 0 0 0
							}
						}
					}
				}
			}
		}
	}
	JOINT RightUpLeg_virtual
	{
		OFFSET 0.000000 0.000000 0.000000
		CHANNELS 3 Xrotation Yrotation Zrotation
		JOINT RightUpLeg
		{
			OFFSET -11.333700 -6.187798 -0.413800
			CHANNELS 3 Xrotation Yrotation Zrotation
			JOINT RightLeg
			{
				OFFSET -0.430392 -32.302628 3.733000
				CHANNELS 3 Xrotation Yrotation Zrotation
				JOINT RightFoot
				{
					OFFSET 0.430392 -48.264973 -6.423500
					CHANNELS 3 Xrotation Yrotation Zrotation
					JOINT RightToeBase
					{
						OFFSET -4.230900 -16.068199 23.438400
						CHANNELS 3 Xrotation Yrotation Zrotation
						JOINT RightToe_End
						{
							OFFSET -4.510700 0.695400 19.974600
							CHANNELS 3 Xrotation Yrotation Zrotation
							End Site
							{
								OFFSET 0 0 0
							}
						}
					}
				}
			}
		}
	}
	JOINT Spine_virtual
	{
		OFFSET 0.000000 0.000000 0.000000
		CHANNELS 3 Xrotation Yrotation Zrotation
		JOINT Spine
		{
			OFFSET -0.002400 12.777504 0.315300
			CHANNELS 3 Xrotation Yrotation Zrotation
			JOINT Spine1
			{
				OFFSET -0.002067 5.816869 0.032633
				CHANNELS 3 Xrotation Yrotation Zrotation
				JOINT Spine1_split
				{
					OFFSET -0.002067 5.816869 0.032633
					CHANNELS 3 Xrotation Yrotation Zrotation
					JOINT Spine2
					{
						OFFSET -0.002067 5.816869 0.032633
						CHANNELS 3 Xrotation Yrotation Zrotation
						JOINT Neck_virtual
						{
							OFFSET 0.000000 0.000000 0.000000
							CHANNELS 3 Xrotation Yrotation Zrotation
							JOINT Neck
							{
								OFFSET -0.003700 21.199493 -0.826900
								CHANNELS 3 Xrotation Yrotation Zrotation
								JOINT Head
								{
									OFFSET 0.000000 20.442200 4.834800
									CHANNELS 3 Xrotation Yrotation Zrotation
									JOINT HeadTop_End
									{
										OFFSET 0.000000 34.668396 4.968400
										CHANNELS 3 Xrotation Yrotation Zrotation
										End Site
										{
											OFFSET 0 0 0
										}
									}
								}
							}
						}
						JOINT LeftShoulder_virtual
						{
							OFFSET 0.000000 0.000000 0.000000
							CHANNELS 3 Xrotation Yrotation Zrotation
							JOINT LeftShoulder
							{
								OFFSET 3.288150 8.794197 -1.372250
								CHANNELS 3 Xrotation Yrotation Zrotation
								JOINT LeftShoulder_split
								{
									OFFSET 3.288150 8.794197 -1.372250
									CHANNELS 3 Xrotation Yrotation Zrotation
									JOINT LeftArm
									{
										OFFSET 11.953299 -2.279007 -0.146200
										CHANNELS 3 Xrotation Yrotation Zrotation
										JOINT LeftForeArm
										{
											OFFSET 18.448900 0.000000 0.000000
											CHANNELS 3 Xrotation Yrotation Zrotation
											JOINT LeftHand
											{
												OFFSET 29.527798 0.000000 0.000000
												CHANNELS 3 Xrotation Yrotation Zrotation
												End Site
												{
													OFFSET 0 0 0
												}
											}
										}
									}
								}
							}
						}
						JOINT RightShoulder_virtual
						{
							OFFSET 0.000000 0.000000 0.000000
							CHANNELS 3 Xrotation Yrotation Zrotation
							JOINT RightShoulder
							{
								OFFSET -3.249400 8.794197 -1.372250
								CHANNELS 3 Xrotation Yrotation Zrotation
								JOINT RightShoulder_split
								{
									OFFSET -3.249400 8.794197 -1.372250
									CHANNELS 3 Xrotation Yrotation Zrotation
									JOINT RightArm
									{
										OFFSET -11.953299 -2.279007 -0.146200
										CHANNELS 3 Xrotation Yrotation Zrotation
										JOINT RightForeArm
										{
											OFFSET -18.448900 0.000000 0.000000
											CHANNELS 3 Xrotation Yrotation Zrotation
											JOINT RightHand
											{
												OFFSET -29.527802 0.000000 0.000000
												CHANNELS 3 Xrotation Yrotation Zrotation
												End Site
												{
													OFFSET 0 0 0
												}
											}
										}
									}
								}
							}
						}
					}
				}
			}
		}
	}
}
MOTION
Frames: 11
Frame Time: 0.03333333
-2.878511 79.840309 -118.558136 0.000000 0.000000 0.000000 164.640371 -71.375921 158.703366 -58.333866 -8.192832 30.448143 37.138122 -4.773374 0.211683 25.181138 5.152732 -9.834938 0.775236 2.571147 0.572342 0.000000 0.000000 0.000000 160.319525 -71.909809 154.943005 -52.590268 0.939020 -21.775499 49.242140 -1.122226 -0.201744 9.538395 1.616182 11.171887 -7.656396 0.733873 0.557565 0.000000 0.000000 0.000000 163.385160 -73.878693 157.707675 5.445468 8.206665 0.043202 -0.727598 12.511377 2.744067 -0.050795 2.536842 1.315090 0.000000 0.000000 0.000000 9.247122 14.627212 0.232441 5.019804 9.157759 -5.735131 -8.564171 16.342314 7.086319 0.000000 0.000000 0.000000 6.523979 15.318796 0.369536 6.620231 10.283648 -11.337486 13.714230 0.671507 -2.159060 -51.959599 -35.264052 -46.774966 28.823436 -86.776085 25.217388 0.000000 0.000000 0.000000 7.568300 15.009149 1.178177 -13.535213 1.803161 -3.237317 11.114694 1.122066 -6.523323 -91.385097 38.642704 110.332984 -8.038421 41.150080 4.752578 0.000000 0.000000 0.000000 
-0.834825 80.197182 -123.624023 0.000000 0.000000 0.000000 163.667889 -72.603258 157.453742 -58.385604 -7.180529 29.823041 35.832361 -4.472461 0.450817 25.574926 4.502742 -11.391592 0.574855 2.499317 -0.055612 0.000000 0.000000 0.000000 162.083845 -72.393107 156.590542 -52.453934 -2.739459 -17.572632 53.762017 -3.453190 0.761876 6.519773 -0.724543 9.448793 -8.672818 0.756114 0.729057 0.000000 0.000000 0.000000 165.100125 -72.688471 158.953665 5.989285 7.742851 0.153609 -0.824492 11.661260 2.992079 0.042184 2.499202 1.195193 0.000000 0.000000 0.000000 9.318938 13.900577 0.417049 4.075418 9.971923 -6.613915 -10.109758 17.437517 7.561081 0.000000 0.000000 0.000000 6.666509 14.468670 0.617444 6.212152 9.890877 -10.934622 14.311260 3.727642 -3.001998 -51.877479 -35.529589 -47.224761 38.794566 -87.439979 34.974667 0.000000 0.000000 0.000000 7.551322 14.169159 1.359749 -13.569366 0.944962 -3.790561 11.736085 0.823859 -7.629963 -91.894731 39.837621 110.716383 -7.868420 40.802980 4.566895 0.000000 0.000000 0.000000 
0.710585 80.416817 -126.859802 0.000000 0.000000 0.000000 162.011472 -74.366301 155.552996 -59.799365 -6.547456 28.701688 36.959540 -4.291883 0.573513 25.115637 3.603928 -12.297053 -1.189541 2.455356 -0.812606 0.000000 0.000000 0.000000 163.129328 -72.896806 157.432596 -51.533979 -5.639712 -14.399669 56.047518 -5.287211 1.153740 2.947964 -2.908659 8.019362 -8.561021 0.896650 1.076151 0.000000 0.000000 0.000000 165.798471 -71.815061 159.356755 6.285602 7.579948 0.287555 -0.904153 11.010768 3.154394 0.040258 2.253392 1.070265 0.000000 0.000000 0.000000 9.553312 13.353950 0.494459 3.178469 10.511696 -7.487300 -11.395300 18.405425 7.653680 0.000000 0.000000 0.000000 6.813496 13.811132 0.727714 5.845033 9.686468 -10.777835 14.293358 6.197533 -2.907390 -52.209447 -35.669126 -47.827122 34.712541 -87.330095 30.617641 0.000000 0.000000 0.000000 7.587291 13.532593 1.476864 -13.586459 0.286448 -4.234379 11.793899 0.303072 -8.375056 -92.274517 41.037740 110.829641 -7.534432 40.613640 4.249741 0.000000 0.000000 0.000000 
1.470548 80.593330 -128.580444 0.000000 0.000000 0.000000 159.314996 -76.203888 152.739163 -61.820903 -5.675506 28.071142 39.234434 -4.085885 0.366110 24.561640 3.046816 -12.136315 -2.295762 2.494886 -1.878766 0.000000 0.000000 0.000000 162.804048 -73.449559 156.895237 -50.637913 -7.465483 -12.811231 55.925060 -6.234224 0.956636 -0.117618 -4.459933 6.958526 -7.023968 1.105896 1.709452 0.000000 0.000000 0.000000 165.646158 -71.493748 159.224742 6.397951 7.643151 0.278521 -0.921374 10.576815 3.178526 -0.059198 1.820474 0.876894 0.000000 0.000000 0.000000 9.780518 13.010155 0.470571 2.371769 10.744390 -8.139763 -12.073692 19.101951 7.535347 0.000000 0.000000 0.000000 6.935643 13.354937 0.697029 5.526341 9.814457 -10.607437 13.554235 7.963067 -2.130586 -52.792714 -35.510007 -48.507621 22.291483 -86.406859 17.893646 0.000000 0.000000 0.000000 7.629276 13.112691 1.512108 -13.577567 -0.254685 -4.513160 11.480968 0.049395 -9.103605 -92.787157 42.229270 111.016276 -7.040606 40.020616 3.840683 0.000000 0.000000 0.000000 
1.580635 80.768669 -129.141251 0.000000 0.000000 0.000000 156.972664 -77.325774 150.489053 -63.431980 -4.265703 28.405416 40.818942 -4.052498 -0.058500 24.104620 2.920659 -11.324258 -2.055482 2.566238 -2.993196 0.000000 0.000000 0.000000 162.280486 -73.796137 156.413176 -50.631875 -7.988435 -12.937668 55.010480 -5.981536 0.485257 -1.823344 -4.893114 6.422979 -4.317934 1.289958 2.497889 0.000000 0.000000 0.000000 165.303733 -71.630912 159.174635 6.500802 7.770055 0.046648 -0.863996 10.349614 3.115899 -0.104615 1.413842 0.632729 0.000000 0.000000 0.000000 9.846936 12.828643 0.406336 1.829141 10.694522 -8.503691 -12.011540 19.412540 7.332749 0.000000 0.000000 0.000000 6.993550 13.086568 0.599481 5.267535 10.213520 -10.268018 12.225183 8.751007 -1.341828 -53.309603 -35.102183 -49.080278 14.307581 -85.036388 9.615864 0.000000 0.000000 0.000000 7.623884 12.889478 1.512518 -13.556877 -0.785316 -4.652715 10.934698 0.056879 -9.586352 -93.440061 43.395668 111.508500 -6.473704 38.874862 3.462575 0.000000 0.000000 0.000000 
1.206586 80.965233 -128.948029 0.000000 0.000000 0.000000 155.935281 -77.701912 149.770339 -63.829197 -2.258573 29.543850 40.831800 -4.086908 -0.501405 23.598719 3.251042 -10.030289 -0.890345 2.591623 -3.999444 0.000000 0.000000 0.000000 161.080299 -73.964590 155.341533 -51.484361 -7.420362 -14.243952 54.519246 -4.696082 0.033743 -1.963636 -4.390451 6.728347 -1.867244 1.352133 3.155859 0.000000 0.000000 0.000000 164.797998 -72.056583 159.022308 6.654141 7.807516 -0.402047 -0.759786 10.272574 3.027952 -0.118383 1.208020 0.532508 0.000000 0.000000 0.000000 9.700629 12.754385 0.370417 1.609783 10.314287 -8.535079 -11.266642 19.142654 7.162572 0.000000 0.000000 0.000000 6.950243 12.963367 0.545229 5.085933 10.754249 -9.736052 10.614000 8.219295 -0.680094 -53.488448 -34.496738 -49.385574 11.254937 -83.933463 6.293147 0.000000 0.000000 0.000000 7.550119 12.804279 1.549152 -13.526197 -1.431065 -4.707811 10.436904 0.281843 -10.050625 -93.889925 44.266101 112.194388 -5.971871 37.569534 3.236220 0.000000 0.000000 0.000000 
0.773845 81.223045 -128.252060 0.000000 0.000000 0.000000 157.086824 -77.338341 151.496519 -63.267503 -0.144057 30.969119 39.712677 -4.444232 -0.702492 23.474332 3.439160 -8.908443 0.189009 2.540361 -4.466980 0.000000 0.000000 0.000000 160.072040 -74.143438 154.666943 -52.663719 -6.153127 -15.841389 54.917832 -3.064960 -0.239000 -0.925820 -3.356197 7.771504 -0.700664 1.126203 3.389379 0.000000 0.000000 0.000000 164.381753 -72.469120 158.969333 6.813719 7.666210 -0.958023 -0.655956 10.257767 2.977025 0.127855 1.161945 0.545444 0.000000 0.000000 0.000000 9.315857 12.737978 0.425536 1.696154 9.707032 -8.257186 -10.198570 18.369037 7.164600 0.000000 0.000000 0.000000 6.777820 12.916266 0.569468 4.993825 11.297521 -9.103433 9.250569 6.903889 -0.300770 -53.214919 -33.860250 -49.417829 11.614151 -83.454646 6.363149 0.000000 0.000000 0.000000 7.378180 12.807271 1.653055 -13.530485 -2.241775 -4.719722 10.241406 0.786354 -10.530423 -93.853739 44.432962 112.781135 -5.680555 36.441330 3.222740 0.000000 0.000000 0.000000 
0.555879 81.466721 -127.516342 0.000000 0.000000 0.000000 160.525783 -76.455553 155.613962 -62.211637 1.193179 31.965620 38.794949 -5.316576 -0.566452 24.195638 3.002341 -8.351032 -0.149975 2.414977 -4.084575 0.000000 0.000000 0.000000 160.407922 -74.393963 155.645149 -53.520280 -4.844450 -16.955441 56.044789 -1.577654 -0.368355 0.111978 -2.068650 8.961630 -0.871778 0.716532 3.285018 0.000000 0.000000 0.000000 164.270489 -72.713210 158.976519 6.983509 7.382205 -1.455228 -0.618464 10.276419 2.993115 0.323694 1.395075 0.614885 0.000000 0.000000 0.000000 8.856843 12.752644 0.570157 2.143602 8.914066 -7.773802 -9.160504 17.275077 7.307846 0.000000 0.000000 0.000000 6.485510 12.923580 0.669950 5.007791 11.717600 -8.631308 8.320892 5.062859 -0.148474 -52.391475 -33.461517 -48.998619 14.185966 -83.326115 8.579830 0.000000 0.000000 0.000000 7.103892 12.871508 1.847338 -13.602861 -3.154590 -4.779191 10.443548 1.396074 -10.936008 -93.349261 43.670785 113.142357 -5.663790 35.864176 3.389645 0.000000 0.000000 0.000000 
0.637339 81.726387 -126.887054 0.000000 0.000000 0.000000 164.071335 -75.607107 159.833093 -61.340488 1.241556 31.922901 39.168895 -6.017672 -0.159530 25.276075 2.471285 -7.609979 -1.299182 2.202392 -3.347598 0.000000 0.000000 0.000000 162.077507 -74.652383 158.119863 -53.703926 -4.055327 -17.281027 56.951996 -0.796354 -0.397044 0.234369 -1.149624 9.357299 -1.381906 0.367017 3.070668 0.000000 0.000000 0.000000 164.528165 -72.728906 159.052033 7.119918 7.029915 -1.746068 -0.676616 10.311525 3.049945 0.297967 1.743943 0.632818 0.000000 0.000000 0.000000 8.482942 12.800744 0.732596 2.855804 8.007733 -7.212544 -8.417282 16.015610 7.529988 0.000000 0.000000 0.000000 6.138140 12.988254 0.770167 5.104890 11.957669 -8.473520 7.990896 3.581444 0.105467 -51.227081 -33.515062 -48.103168 18.075886 -83.157567 12.021047 0.000000 0.000000 0.000000 6.806970 12.976139 2.037611 -13.710022 -4.063159 -4.925958 10.654201 1.991372 -11.271946 -92.751367 42.112054 113.424000 -5.870262 35.735782 3.645124 0.000000 0.000000 0.000000 
0.924740 82.060425 -126.321075 0.000000 0.000000 0.000000 167.154974 -75.163616 163.488952 -60.679407 0.218586 30.876430 40.629315 -6.148159 0.405342 25.919624 2.332564 -6.385389 -2.222857 1.941490 -2.710517 0.000000 0.000000 0.000000 165.166378 -74.699443 162.022660 -53.528838 -3.841318 -16.895735 56.952600 -0.893633 -0.322395 -0.962276 -0.780877 8.490218 -0.989290 0.216302 2.902394 0.000000 0.000000 0.000000 165.047724 -72.526070 159.112139 7.140754 6.714088 -1.714094 -0.807836 10.432694 3.097368 0.181898 2.045854 0.667892 0.000000 0.000000 0.000000 8.293423 12.887962 0.825546 3.820688 7.131460 -6.745265 -7.974217 14.758036 7.676929 0.000000 0.000000 0.000000 5.816970 13.128167 0.787239 5.233049 11.948921 -8.772322 8.098994 2.809091 0.561087 -49.848934 -34.269706 -46.831421 21.823125 -82.665670 15.260167 0.000000 0.000000 0.000000 6.594176 13.135659 2.113757 -13.837702 -4.877115 -5.188199 10.746416 2.304308 -11.160575 -92.495610 40.432719 113.926401 -6.159511 35.743985 3.879946 0.000000 0.000000 0.000000 
1.221799 82.487602 -125.910858 0.000000 0.000000 0.000000 169.379676 -75.260270 166.009401 -60.097769 -1.316892 29.102203 42.410113 -5.495596 0.916813 25.549579 2.814472 -4.855429 -2.877554 1.725012 -2.402066 0.000000 0.000000 0.000000 168.451781 -74.418545 165.853946 -53.475078 -3.985791 -16.197664 56.107525 -1.215222 -0.293727 -2.418648 -0.520965 7.226503 0.233031 0.320328 2.852529 0.000000 0.000000 0.000000 165.676743 -72.361360 159.180646 7.078977 6.510074 -1.397065 -0.998478 10.657540 3.085550 -0.075368 2.248573 0.827971 0.000000 0.000000 0.000000 8.328283 13.020652 0.795993 4.867254 6.334986 -6.442089 -7.765513 13.612292 7.654362 0.000000 0.000000 0.000000 5.580783 13.355625 0.698157 5.363764 11.675503 -9.509327 8.516618 2.606635 1.146486 -48.403840 -35.599540 -45.372376 24.151791 -81.834300 17.061968 0.000000 0.000000 0.000000 6.564178 13.316656 2.015327 -13.944115 -5.543867 -5.567182 10.654604 2.330818 -10.698412 -92.721444 39.347729 114.676376 -6.368048 35.512810 3.992606 0.000000 0.000000 0.000000 
